Coordinates
version=1
nRows=13
nColumns=40
inDegrees=yes

Units are S.I. units (second, meters, Newtons, ...)
Angles are in degrees.

endheader
time	pelvis_tilt	pelvis_list	pelvis_rotation	pelvis_tx	pelvis_ty	pelvis_tz	hip_flexion_r	hip_adduction_r	hip_rotation_r	knee_angle_r	knee_angle_r_beta	ankle_angle_r	subtalar_angle_r	mtp_angle_r	hip_flexion_l	hip_adduction_l	hip_rotation_l	knee_angle_l	knee_angle_l_beta	ankle_angle_l	subtalar_angle_l	mtp_angle_l	lumbar_extension	lumbar_bending	lumbar_rotation	arm_flex_r	arm_add_r	arm_rot_r	elbow_flex_r	pro_sup_r	wrist_flex_r	wrist_dev_r	arm_flex_l	arm_add_l	arm_rot_l	elbow_flex_l	pro_sup_l	wrist_flex_l	wrist_dev_l
     36.99000000	     -3.55283500	     -3.17020161	     -3.51023126	      0.88336407	      0.92454814	      0.43152153	     27.58924596	     -1.87056814	    -11.38994581	     12.89940074	     12.89940074	      2.13788305	      8.84915085	      9.30700096	     -0.43704087	     -2.86054546	    -12.85682251	     12.35156674	     12.35156674	     18.31025353	     -0.37814903	     -6.90149716	     -9.55645278	      2.27541562	     -0.05428246	    -15.79675156	    -15.29877685	     -7.35288994	     24.36148642	     46.86855287	      0.00000000	      0.00000000	     15.56849385	    -16.24648392	     -5.57708300	     58.19286655	     46.19029826	      0.00000000	      0.00000000
     37.00357143	     -3.50133162	     -3.08473112	     -3.45650664	      0.88526855	      0.92316093	      0.43317209	     27.30568102	     -1.77874071	    -11.50803015	     13.19937933	     13.19937933	      1.28835340	      8.04417360	      7.39206252	     -1.25796791	     -2.84028021	    -13.04878942	     12.09080856	     12.09080856	     18.75844994	      0.14378127	     -6.94426696	     -9.40810216	      2.26983844	     -0.45989533	    -16.25590521	    -15.27720026	     -8.64853660	     25.60603815	     46.89025646	      0.00000000	      0.00000000	     14.71184525	    -16.39522464	     -6.12144260	     60.52112463	     46.30555553	      0.00000000	      0.00000000
     37.01714286	     -3.46631296	     -3.06193734	     -3.36426435	      0.88734001	      0.92181094	      0.43487579	     27.10001899	     -1.71215741	    -11.69340181	     13.98234116	     13.98234116	      1.11292627	      7.28406891	      6.99998288	     -2.09018885	     -2.87176308	    -13.02255882	     11.78046728	     11.78046728	     19.13067796	      0.41484309	     -6.92826949	     -9.16260912	      2.37476877	     -0.50224082	    -16.43670917	    -15.27306023	     -8.74106220	     25.59651267	     46.89303646	      0.00000000	      0.00000000	     14.72697410	    -16.22727839	     -6.13670744	     60.77783470	     46.31595178	      0.00000000	      0.00000000
     37.03071429	     -3.36967276	     -2.97614400	     -3.22089243	      0.88961791	      0.92047524	      0.43677271	     26.67481875	     -1.60984244	    -11.21379996	     14.57784332	     14.57784332	     -0.05745319	      5.49405658	      3.48845232	     -2.92453713	     -2.90997000	    -13.24999219	     11.64952477	     11.64952477	     19.87998059	      1.22245358	     -6.15417072	     -9.00679459	      2.35870942	     -0.71182575	    -16.63993755	    -15.13389114	     -9.55250664	     26.44727031	     46.88544856	      0.00000000	      0.00000000	     14.12811101	    -16.20046609	     -6.44242779	     62.32058049	     46.40494608	      0.00000000	      0.00000000
     37.04428571	     -3.35296944	     -3.08263651	     -2.96430549	      0.89190773	      0.91929959	      0.43855679	     26.31542692	     -1.49991369	    -11.47050892	     15.40729557	     15.40729557	     -0.01946275	      4.87872011	      3.19782997	     -3.59686548	     -3.15304883	    -13.03092961	     11.59680280	     11.59680280	     20.19208609	      1.35784412	     -6.16774569	     -8.70955493	      2.64932670	     -0.80363373	    -16.56946825	    -15.01929270	     -9.56109143	     26.49185996	     46.88281090	      0.00000000	      0.00000000	     13.99370122	    -15.91026473	     -6.36144368	     62.34669317	     46.40035031	      0.00000000	      0.00000000
     37.05785714	     -3.27413971	     -3.01009783	     -2.83096477	      0.89421002	      0.91818596	      0.44065622	     26.18361921	     -1.49176231	    -11.02158338	     16.75774586	     16.75774586	      0.16968180	      3.51149238	      2.34521631	     -4.31802226	     -3.21568378	    -13.00506642	     11.59331981	     11.59331981	     20.53037429	      1.54965251	     -5.93959994	     -8.54480864	      2.66113066	     -0.81844746	    -16.36411213	    -15.01398721	     -9.64351345	     26.70585030	     46.87717347	      0.00000000	      0.00000000	     13.85840706	    -15.85125012	     -6.39235287	     62.54430573	     46.41050352	      0.00000000	      0.00000000
     37.07142857	     -3.34730420	     -3.03215475	     -2.59881286	      0.89645143	      0.91723012	      0.44285855	     25.98669046	     -1.26494334	    -10.20810365	     17.60653389	     17.60653389	     -0.08963573	      1.42245893	      0.62615854	     -4.65828747	     -3.47457159	    -12.89988715	     12.00306564	     12.00306564	     21.12620195	      1.77523375	     -5.12514336	     -8.19823914	      2.78564341	     -1.01659755	    -16.01393034	    -14.77450245	     -9.82761773	     27.24649311	     46.85706663	      0.00000000	      0.00000000	     13.30688743	    -15.66852652	     -6.48736042	     63.04881273	     46.43728366	      0.00000000	      0.00000000
     37.08500000	     -3.26341800	     -3.17608310	     -2.33844385	      0.89866339	      0.91689359	      0.44508014	     25.55946799	     -1.03789231	    -10.02242149	     18.38091926	     18.38091926	      0.12797889	      0.50629293	     -0.43426338	     -5.04034043	     -3.89302010	    -12.70502679	     12.62101132	     12.62101132	     21.47438803	      1.72206671	     -4.69066403	     -8.12578792	      3.09326324	     -1.06700595	    -15.47929026	    -14.66732875	     -9.88758387	     27.58688722	     46.84354176	      0.00000000	      0.00000000	     12.96852845	    -15.46746946	     -6.52111562	     63.10889200	     46.44789060	      0.00000000	      0.00000000
     37.09857143	     -3.29608480	     -3.35084651	     -2.09008833	      0.90071181	      0.91674475	      0.44751793	     25.22884983	     -0.69884469	     -9.58608019	     18.99720226	     18.99720226	      0.29512526	     -0.72523642	     -1.58357704	     -5.09388788	     -4.40666696	    -12.41071041	     13.59875739	     13.59875739	     21.88586071	      1.50342740	     -4.08564623	     -7.89092210	      3.39001264	     -1.18480469	    -14.76388760	    -14.49525756	     -9.93097080	     28.02063879	     46.82286265	      0.00000000	      0.00000000	     12.48433706	    -15.20947761	     -6.61140642	     63.06894821	     46.46382641	      0.00000000	      0.00000000
     37.11214286	     -3.13645408	     -3.54910267	     -1.87266062	      0.90279443	      0.91734729	      0.45007149	     24.63480489	     -0.37495989	     -9.47433525	     19.50074555	     19.50074555	      0.85438531	     -1.25452824	     -2.14618486	     -5.34960042	     -4.93876763	    -12.14358611	     14.54441556	     14.54441556	     21.88941350	      1.13141590	     -3.90184715	     -7.95255008	      3.71096433	     -1.06487210	    -13.96741150	    -14.37925519	     -9.91315598	     28.36734201	     46.80926110	      0.00000000	      0.00000000	     12.14605219	    -14.89418796	     -6.57408252	     62.90245773	     46.46087541	      0.00000000	      0.00000000
     37.12571429	     -3.21717467	     -3.75752176	     -1.62980154	      0.90449293	      0.91797348	      0.45270033	     24.23790798	      0.02105281	     -9.21288225	     19.76650242	     19.76650242	      1.24438198	     -2.10383761	     -2.78295593	     -4.90600208	     -5.58093048	    -11.72073201	     16.23571748	     16.23571748	     21.90798357	      0.40043798	     -3.67800150	     -7.74673473	      4.02602003	     -1.12790163	    -12.95702036	    -14.19403963	     -9.88081551	     28.91328845	     46.78365647	      0.00000000	      0.00000000	     11.59202468	    -14.61423489	     -6.65129247	     62.51433943	     46.46635046	      0.00000000	      0.00000000
     37.13928571	     -3.05026129	     -3.95342805	     -1.42876059	      0.90625662	      0.91923287	      0.45545644	     23.50943894	      0.39306519	     -9.08685190	     19.92125506	     19.92125506	      1.86256486	     -2.46888493	     -3.23277622	     -4.70583110	     -6.20504348	    -11.31320367	     17.95752481	     17.95752481	     21.69229824	     -0.34755121	     -3.71207249	     -7.87066132	      4.29985431	     -0.97606917	    -11.87417369	    -14.09311980	     -9.83588310	     29.45102650	     46.76181050	      0.00000000	      0.00000000	     11.18404760	    -14.32408941	     -6.66543954	     62.16668826	     46.46459460	      0.00000000	      0.00000000
     37.15285714	     -2.97047658	     -4.14779209	     -1.22820188	      0.90774846	      0.92061813	      0.45830513	     22.78744167	      0.78212438	     -9.09044984	     19.84396526	     19.84396526	      2.40845882	     -2.73081971	     -3.58548571	     -4.08370658	     -6.89275939	    -10.85059242	     20.21804809	     20.21804809	     21.21764270	     -1.34622649	     -3.93508006	     -7.93026728	      4.56406613	     -0.86228922	    -10.68319625	    -13.99970696	     -9.78600193	     30.12108843	     46.73510532	      0.00000000	      0.00000000	     10.70257380	    -14.06306057	     -6.68937283	     61.70033532	     46.46103233	      0.00000000	      0.00000000
